<svg width="669" height="596" viewBox="0 0 669 596" fill="none" xmlns="http://www.w3.org/2000/svg">
<path d="M111.5 459.417L323.824 104.747C328.298 97.2722 340.396 97.4088 344.647 104.995L418.125 235.917L111.5 459.417Z" fill="#FF8F00"/>
<path d="M111.5 459.317L188.797 34.6798C190.818 23.5668 207.571 21.158 213.425 31.141L362.375 285.484L111.5 459.317Z" fill="#FFA000"/>
<path d="M111.612 459.243L114.399 457.293L358.71 279.226L289.802 161.566L111.612 459.243Z" fill="#FF6F00"/>
<path d="M111.5 459.417L483.157 140.147C490.948 133.454 503.952 137.403 505.541 146.939L557.5 459.417L348.437 567.976C339.95 572.222 329.594 572.222 321.106 567.976L111.5 459.417Z" fill="#FFC400"/>
</svg>
