<svg width="669" height="596" viewBox="0 0 669 596" fill="none" xmlns="http://www.w3.org/2000/svg">
<path d="M341.469 554.541L97.5625 426.14V169.86L341.469 41.4593L585.375 169.86V426.14L341.469 554.541ZM125.438 411.985L341.469 525.709L557.5 411.985V184.015L341.469 70.2908L125.438 184.015V411.985Z" fill="#E8457C"/>
<path d="M341.469 111.75C372.259 111.75 397.219 89.5135 397.219 62.0833C397.219 34.6532 372.259 12.4167 341.469 12.4167C310.679 12.4167 285.719 34.6532 285.719 62.0833C285.719 89.5135 310.679 111.75 341.469 111.75Z" fill="#E8457C"/>
<path d="M341.469 583.583C372.259 583.583 397.219 561.347 397.219 533.917C397.219 506.487 372.259 484.25 341.469 484.25C310.679 484.25 285.719 506.487 285.719 533.917C285.719 561.347 310.679 583.583 341.469 583.583Z" fill="#E8457C"/>
<path d="M118.469 459.417C149.259 459.417 174.219 437.18 174.219 409.75C174.219 382.32 149.259 360.083 118.469 360.083C87.6789 360.083 62.7188 382.32 62.7188 409.75C62.7188 437.18 87.6789 459.417 118.469 459.417Z" fill="#E8457C"/>
<path d="M564.469 459.417C595.259 459.417 620.219 437.18 620.219 409.75C620.219 382.32 595.259 360.083 564.469 360.083C533.679 360.083 508.719 382.32 508.719 409.75C508.719 437.18 533.679 459.417 564.469 459.417Z" fill="#E8457C"/>
<path d="M118.469 235.917C149.259 235.917 174.219 213.68 174.219 186.25C174.219 158.82 149.259 136.583 118.469 136.583C87.6789 136.583 62.7188 158.82 62.7188 186.25C62.7188 213.68 87.6789 235.917 118.469 235.917Z" fill="#E8457C"/>
<path d="M564.469 235.917C595.259 235.917 620.219 213.68 620.219 186.25C620.219 158.82 595.259 136.583 564.469 136.583C533.679 136.583 508.719 158.82 508.719 186.25C508.719 213.68 533.679 235.917 564.469 235.917Z" fill="#E8457C"/>
<path d="M595.41 428.375H87.5276L341.469 30.7685L595.41 428.375ZM135.473 403.542H547.465L341.469 80.9815L135.473 403.542Z" fill="#E8457C"/>
</svg>
