<svg width="669" height="596" viewBox="0 0 669 596" fill="none" xmlns="http://www.w3.org/2000/svg">
<path d="M83.625 521.5V74.5H585.375V521.5H83.625Z" fill="#F7DF1E"/>
<path d="M411.686 409.092C421.331 423.048 431.812 436.421 454.014 436.421C472.662 436.421 482.447 428.164 482.447 416.741C482.447 403.07 472.328 398.215 451.812 390.256L440.564 385.984C408.104 373.717 386.515 358.345 386.515 325.875C386.515 295.951 412.229 273.179 452.411 273.179C481.025 273.179 501.583 282.007 516.412 305.127L481.373 325.081C473.666 312.813 465.331 307.983 452.411 307.983C439.226 307.983 430.878 315.396 430.878 325.081C430.878 337.05 439.24 341.893 458.544 349.306L469.791 353.577C508.05 368.092 529.625 382.918 529.625 416.244C529.625 452.153 497.792 471.833 455.059 471.833C413.261 471.833 389.525 453.146 376.312 430.014L411.686 409.092ZM250.206 410.11C257.258 421.36 267.976 430.014 283.391 430.014C298.137 430.014 306.625 424.824 306.625 404.647V273.167H353.079V411.004C353.079 452.811 325.859 471.833 286.109 471.833C250.192 471.833 224.268 450.154 213.704 430.014L250.206 410.11Z" fill="#000001"/>
</svg>
