<svg width="669" height="596" viewBox="0 0 669 596" fill="none" xmlns="http://www.w3.org/2000/svg">
<g clip-path="url(#clip0_35_2)">
<path d="M332.409 1.62038L350.263 31.4949C354.277 37.0079 358.626 41.8876 363.748 46.4321C378.696 59.749 392.891 73.6991 405.644 88.6364C435.895 124.024 456.3 163.323 470.872 205.825C479.61 231.788 484.356 258.422 484.711 285.354C486.175 365.87 455.192 435.006 392.724 492.464C382.522 501.553 371.609 509.971 359.901 517.458C353.713 517.458 350.786 513.231 348.235 509.338C343.49 502.205 340.584 494.065 339.12 485.963C336.925 476.223 335.483 466.482 336.193 456.424V451.88C335.692 450.911 330.235 3.91125 332.409 1.62038Z" fill="#599636"/>
<path d="M332.409 0.633249C331.678 -0.670501 330.946 0.316624 330.214 0.949874C330.57 7.46862 328.019 13.2796 324.026 18.8299C319.636 24.3429 313.824 28.5707 307.991 33.1152C275.586 58.11 250.08 88.3011 229.655 122.068C202.477 167.513 188.47 216.218 184.498 267.492C182.679 285.987 191.062 351.249 197.606 370.079C215.46 420.068 247.53 461.956 289.071 498.312C299.273 507.066 310.186 515.186 321.475 522.99C324.758 522.99 325.113 520.382 325.866 518.445C327.305 514.301 328.402 510.068 329.148 505.78L336.465 457.095L332.409 0.633249Z" fill="#6CAC48"/>
<path d="M350.263 537.238C350.995 529.788 355.009 523.605 359.378 517.44C354.988 515.819 351.727 512.597 349.176 509.003C346.981 505.762 345.162 501.869 343.74 498.293C338.639 484.66 337.552 470.356 336.089 456.424V447.987C334.27 449.291 333.894 460.317 333.894 461.956C332.83 476.68 330.636 491.323 327.329 505.781C326.242 511.629 325.51 517.458 321.475 522.655C321.475 523.307 321.475 523.959 321.831 524.927C328.395 542.137 330.193 559.663 331.301 577.524V584.043C331.301 591.828 330.946 590.189 338.2 592.796C341.127 593.765 344.389 594.1 347.315 596.037C349.511 596.037 349.866 594.417 349.866 593.113L348.779 582.404V552.529C348.424 547.314 349.511 542.137 350.242 537.257L350.263 537.238Z" fill="#C2BFBF"/>
</g>
<defs>
<clipPath id="clip0_35_2">
<rect width="669" height="596" fill="white"/>
</clipPath>
</defs>
</svg>
