<svg width="669" height="596" viewBox="0 0 669 596" fill="none" xmlns="http://www.w3.org/2000/svg">
<path d="M334.598 563.953C326.597 563.953 318.667 562.09 311.656 558.489L238.624 519.96C227.711 514.522 233.035 512.597 236.631 511.492C251.182 506.96 254.122 505.93 269.649 498.07C271.279 497.238 273.412 497.536 275.084 498.417L331.197 528.081C333.218 529.062 336.103 529.062 337.97 528.081L556.747 415.573C558.768 414.543 560.092 412.457 560.092 410.309V185.406C560.092 183.158 558.782 181.159 556.706 180.042L338.026 67.6212C336.005 66.5534 333.315 66.5534 331.294 67.6212L112.643 180.029C110.524 181.097 109.172 183.196 109.172 185.344V410.259C109.172 412.407 110.483 414.456 112.573 415.474L172.491 446.305C205.021 460.795 224.895 443.722 224.895 426.55V204.577C224.895 201.411 227.683 198.965 231.251 198.965H258.959C262.415 198.965 265.258 201.398 265.258 204.577V426.662C265.258 465.302 241.607 487.503 200.477 487.503C187.822 487.503 177.856 487.503 150.037 475.31L92.6426 445.845C78.4542 438.519 69.6875 424.849 69.6875 410.272V185.356C69.6875 170.717 78.4542 157.058 92.6286 149.832L311.643 37.2749C325.496 30.2967 343.894 30.2967 357.65 37.2749L576.385 149.882C590.49 157.145 599.312 170.766 599.312 185.406V410.321C599.312 424.911 590.49 438.519 576.371 445.845L357.636 558.39C350.626 562.003 342.681 563.853 334.584 563.853" fill="#21A366"/>
<path d="M402.18 408.968C306.458 408.968 286.388 369.818 286.388 336.988C286.388 333.872 289.217 331.376 292.729 331.376H320.995C324.117 331.376 326.751 333.4 327.239 336.144C331.503 361.797 344.214 374.735 402.097 374.735C448.202 374.735 467.812 365.46 467.812 343.669C467.812 331.128 462.223 321.815 390.598 315.57C330.681 310.305 293.663 298.546 293.663 255.858C293.663 216.534 330.904 193.116 393.274 193.116C463.324 193.116 498.043 214.784 502.419 261.321C502.586 262.935 501.931 264.487 500.719 265.667C499.52 266.785 497.82 267.467 496.063 267.467H467.645C464.69 267.467 462.112 265.617 461.512 263.072C454.669 236.091 438.125 227.461 393.163 227.461C342.835 227.461 336.981 243.069 336.981 254.778C336.981 268.97 343.88 273.117 411.783 281.126C479.032 289.072 510.963 300.297 510.963 342.402C510.963 384.842 471.199 409.191 401.874 409.191" fill="#21A366"/>
</svg>
