<svg width="669" height="596" viewBox="0 0 669 596" fill="none" xmlns="http://www.w3.org/2000/svg">
<path d="M466.993 23.84C439.711 23.84 416.087 30.4053 399.728 36.8775C383.682 32.0815 357.079 23.8865 325.144 29.8C306.538 32.6868 289.447 39.5315 273.767 50.0081C247.948 38.9262 220.979 32.1281 192.703 31.0106C175.299 29.8 104.374 36.9706 78.9211 70.3093C69.5656 83.44 60.21 100.109 56.1856 120.364C52.1611 138.244 52.1611 158.545 58.8511 200.265C62.8756 228.855 68.259 247.945 80.28 287.244C81.639 290.829 88.329 309.92 108.399 362.396C112.371 371.895 120.42 389.775 136.466 406.444C147.18 418.364 157.894 425.535 171.274 425.535C188.679 425.535 200.7 414.825 211.414 402.905C212.198 402.114 213.035 401.229 213.819 400.437C212.826 401.834 211.937 403.371 211.414 405.28C208.749 417.2 224.794 426.745 238.174 431.495C248.889 436.244 260.91 437.455 270.266 437.455C282.287 437.455 291.694 435.08 297.026 433.916C301.625 432.519 311.555 428.701 322.165 422.415C322.636 452.867 322.949 488.813 323.786 497.055C327.81 528.065 337.166 549.484 354.57 561.404C367.95 570.949 392.044 572.16 393.403 572.16C417.446 572.16 454.92 557.865 470.966 535.236C479.014 524.48 481.68 514.935 484.346 501.804C487.011 494.68 489.677 452.96 491.036 444.625C492.865 431.448 494.276 418.457 495.687 405.839C504.52 407.887 515.391 410.076 527.203 410.076C548.58 410.076 576.699 396.945 582.03 394.524C592.745 387.4 614.121 370.731 604.766 356.436C599.435 348.055 591.386 348.055 571.316 350.476C571.316 350.476 539.225 354.015 536.507 352.804C534.573 352.152 531.594 350.476 528.249 348.287C535.2 338.696 541.367 329.197 548.58 320.676C564.626 293.251 574.033 271.785 580.723 255.116C592.745 225.316 599.435 201.429 603.407 184.76C612.815 149 615.48 132.331 610.097 113.24C599.435 79.8547 560.601 51.2653 544.556 42.9306C533.841 38.1347 507.133 23.84 466.993 23.84ZM466.993 47.68C500.443 47.68 523.179 59.6 535.2 64.3493C549.939 71.52 583.389 95.36 586.055 117.989C587.413 131.12 588.72 144.251 579.365 178.8C574.033 195.469 568.65 216.935 556.577 246.735C549.887 263.404 541.89 283.705 525.845 308.756C525.426 309.361 524.956 310.013 524.538 310.665C526.106 305.636 527.203 301.585 527.203 301.585C529.869 289.665 529.869 280.12 528.51 265.825C527.151 258.655 525.845 240.775 525.845 233.604C525.845 230.065 529.817 193.095 531.176 179.964C532.535 158.545 517.796 132.284 513.823 127.535C493.753 100.109 483.039 84.6506 461.61 69.1453C456.279 65.0943 447.132 58.3428 434.693 51.5447C444.519 49.4028 455.39 47.68 466.993 47.68ZM348.769 52.569C366.225 52.9415 381.016 57.2253 392.044 60.8106C420.163 69.1453 437.516 82.2293 445.564 88.1893C462.969 101.32 472.325 114.451 492.395 141.876C493.858 144.483 497.673 150.024 500.705 157.754C473.318 155.519 455.129 164.086 444.206 172.84C428.16 184.76 429.467 202.64 430.826 215.724C430.826 225.269 433.543 237.236 453.613 277.745C461.61 295.625 469.607 314.669 477.656 327.8C481.837 335.203 486.959 342.002 492.447 348.055C489.259 349.498 486.018 351.361 482.987 354.015C474.99 362.349 473.631 370.731 470.966 386.236C468.3 398.156 465.634 423.16 464.276 443.415C464.276 451.749 460.303 492.305 458.944 498.265C454.92 510.185 453.561 516.145 448.23 523.316C438.874 536.4 409.449 547.156 392.044 545.945C386.713 545.945 378.664 545.945 371.974 541.196C357.236 531.651 351.904 510.185 350.546 493.516C349.187 481.596 350.546 395.735 347.88 376.644C346.521 371.895 345.214 359.975 334.5 351.64C330.005 348.287 320.702 346.565 311.921 345.401C312.026 341.396 312.287 337.392 313.123 333.76C314.43 326.589 317.096 323.004 319.813 317.044C321.12 313.505 323.786 308.756 326.503 302.796C338.524 269.411 335.807 225.269 329.117 197.844C327.81 195.469 322.427 176.425 303.716 165.716C283.646 154.96 262.217 160.92 250.196 164.505C245.23 165.716 240.317 167.625 235.404 169.86C236.241 164.878 236.972 159.849 238.174 154.96C243.506 131.12 248.889 110.865 266.293 90.6106C285.004 70.3093 306.381 57.2253 330.476 53.64C336.852 52.7553 342.967 52.4293 348.769 52.569ZM183.557 54.6643C186.693 54.6178 189.358 54.6643 191.344 54.8506C212.251 55.8284 232.268 60.2053 252.129 67.6553C249.673 70.0765 247.216 72.4978 244.865 75.1053C222.129 98.9453 216.746 123.949 211.414 149C204.724 178.8 203.366 209.764 208.697 240.775L206.083 263.404C204.724 275.324 202.007 298 216.746 321.84C221.92 329.756 227.617 336.461 233.889 342.188C220.3 358.205 205.874 373.338 191.344 387.4C183.296 395.735 176.606 401.695 171.274 401.695C169.916 401.695 164.584 399.32 156.536 390.985C141.797 376.691 136.466 361.185 133.8 355.225C117.754 312.295 108.399 284.869 107.04 281.284C96.3256 243.149 90.9945 224.105 85.6111 196.68C78.9211 158.545 78.9211 139.455 82.9456 123.996C86.97 107.28 93.66 94.1493 100.35 84.6506C116.761 61.6953 161.814 55.1765 183.557 54.6643ZM490.565 180.29C494.851 180.29 499.503 180.756 504.416 181.687C504.259 192.815 499.085 227.737 499.085 232.44C499.085 241.985 501.75 261.029 501.75 268.2C503.109 281.331 503.109 288.455 501.75 298C501.75 298 499.764 306.521 497.726 312.574C491.506 300.049 484.607 285.102 476.297 268.2C456.227 227.691 454.92 219.356 454.92 213.396C454.92 205.015 454.92 194.305 462.917 189.556C470.443 183.596 479.589 180.383 490.565 180.29ZM282.862 183.782C285.527 184.062 287.984 184.76 290.336 185.924C301.05 190.72 303.716 202.64 303.716 202.64C310.406 228.855 313.071 268.2 302.357 294.415C301.05 299.164 298.384 302.749 297.026 306.335C294.36 312.295 291.694 318.255 288.977 328.964C288.297 333.387 287.984 337.764 287.827 342.141C278.576 340.418 269.847 337.485 263.576 333.76C252.861 329.011 244.864 320.629 239.533 311.084C230.126 293.204 231.484 276.535 232.843 267.036L235.457 239.564C233.575 226.154 232.687 212.697 232.896 199.334C239.063 194.631 247.112 189.835 258.244 187.135C266.293 185.365 275.074 182.897 282.862 183.782ZM480.164 191.791C476.663 191.931 472.952 192.489 470.966 193.095C465.634 194.305 464.276 194.305 462.917 196.68C461.61 199.055 465.634 202.64 466.993 205.015C468.3 205.015 472.324 208.6 477.656 207.436C481.68 206.225 484.346 203.851 485.704 202.64C487.063 201.429 492.395 195.469 488.37 193.095C487.011 191.884 483.666 191.605 480.164 191.791ZM279.83 200.452C278.367 200.545 276.956 200.871 275.597 201.476C274.29 201.476 271.624 202.64 270.266 205.015C268.907 207.389 270.266 209.764 271.624 210.975C274.29 214.56 278.314 218.145 285.004 218.145C286.363 218.145 291.694 218.145 295.667 214.56C295.667 214.56 299.743 210.975 299.743 207.436C298.384 205.015 295.719 203.851 291.694 202.64C288.663 201.755 284.168 200.172 279.83 200.452ZM255.213 356.436C263.419 360.347 273.297 363.513 284.116 365.702C281.241 370.824 277.112 375.061 272.983 377.855C263.576 383.815 251.554 387.4 239.533 389.775C236.816 389.775 235.509 390.985 232.843 390.985C226.362 392.615 220.091 394.431 215.805 398.389C228.923 385.398 242.094 371.057 255.213 356.436ZM513.196 365.981C519.05 369.892 524.799 372.779 529.817 374.316C537.866 376.691 544.556 376.691 568.65 374.316C564.626 377.855 552.604 383.815 535.2 386.236C524.015 387.214 510.113 384.839 498.823 381.952C499.868 375.201 501.071 371.336 503.057 369.52C503.788 368.915 508.231 367.704 513.196 365.981ZM311.712 369.567C314.482 369.986 316.677 370.312 317.096 370.684C319.761 373.105 321.12 379.065 321.12 381.44C321.277 383.489 321.381 388.657 321.486 392.242C310.458 403.743 292.74 410.122 288.977 411.24C283.646 413.615 267.6 415.989 251.554 411.24C264.934 407.655 278.314 404.116 288.977 396.945C298.332 390.985 306.381 381.487 311.712 369.567Z" fill="#00756E"/>
</svg>
