<svg width="669" height="596" viewBox="0 0 669 596" fill="none" xmlns="http://www.w3.org/2000/svg">
<path d="M238.157 83.0753C224.532 83.0753 211.895 85.7926 200.7 91.5341C165.714 109.529 152.397 153.382 159.454 207.979C102.863 229.834 66.9 262.015 66.9 298C66.9 333.985 102.863 366.166 159.454 388.021C152.401 442.616 165.714 486.471 200.7 504.466C211.872 510.207 224.509 512.925 238.157 512.925C267.206 512.925 300.779 499.936 334.5 477.654C368.224 499.936 401.838 512.925 430.887 512.925C444.512 512.925 457.149 510.207 468.344 504.466C503.329 486.471 516.646 442.618 509.59 388.021C566.159 366.166 602.1 333.977 602.1 298C602.1 262.015 566.137 229.834 509.546 207.979C516.599 153.384 503.286 109.529 468.3 91.5341C457.128 85.7728 444.491 83.0753 430.843 83.0753C401.794 83.0753 368.221 96.0635 334.5 118.346C300.777 96.0635 267.196 83.0753 238.157 83.0753ZM238.157 117.842C255.588 117.842 278.638 126.099 303.663 141.395C288.949 153.765 274.539 167.832 260.675 183.495C238.188 186.368 216.987 190.555 197.346 195.795C197.241 194.582 196.991 193.309 196.911 192.109C194.525 156.746 203.242 130.386 220.213 121.645C225.23 119.062 231.088 117.842 238.157 117.842ZM430.843 117.842C437.89 117.842 443.77 119.062 448.788 121.645C465.758 130.366 474.475 156.746 472.089 192.109C472.008 193.309 471.76 194.582 471.654 195.795C452.001 190.552 430.784 186.368 408.282 183.495C394.418 167.834 380.05 153.764 365.337 141.395C390.361 126.101 413.422 117.842 430.843 117.842ZM334.5 163.473C340.545 168.375 346.548 173.556 352.619 179.227C346.603 179.047 340.619 178.8 334.5 178.8C328.396 178.8 322.427 179.048 316.425 179.227C322.49 173.562 328.461 168.37 334.5 163.473ZM334.5 213.567C352.98 213.567 370.495 214.487 387.114 216.089C397.249 228.361 407.238 241.336 416.601 255.783C425.575 269.631 433.511 283.805 440.512 298C433.51 312.203 425.58 326.399 416.601 340.255C407.267 354.661 397.303 367.552 387.201 379.795C369.995 381.472 352.345 382.433 334.5 382.433C316.02 382.433 298.505 381.513 281.886 379.911C271.751 367.639 261.762 354.702 252.399 340.255C243.42 326.399 235.492 312.203 228.488 298C235.487 283.805 243.425 269.631 252.399 255.783C261.737 241.378 271.695 228.448 281.799 216.205C299.005 214.528 316.655 213.567 334.5 213.567ZM440.338 224.315C449.185 226.218 457.691 228.272 465.687 230.562C463.875 237.854 461.66 245.286 459.154 252.796C456.284 247.998 453.501 243.186 450.399 238.4C447.207 233.477 443.664 229.054 440.338 224.315ZM228.619 224.354C225.304 229.078 221.783 233.493 218.601 238.4C215.5 243.187 212.715 247.998 209.847 252.796C207.335 245.27 205.083 237.83 203.27 230.523C211.412 228.231 219.897 226.202 228.619 224.354ZM166.553 243.289C171.252 260.963 177.77 279.284 186.153 297.961C177.787 316.594 171.297 334.882 166.597 352.517C127.762 335.81 105.925 315.013 105.925 298C105.925 280.537 127.152 260.636 162.72 244.802C163.934 244.261 165.313 243.817 166.553 243.289ZM502.403 243.483C541.238 260.19 563.075 280.987 563.075 298C563.075 315.463 541.848 335.364 506.28 351.198C505.066 351.739 503.687 352.182 502.447 352.711C497.746 335.027 491.281 316.689 482.891 298C491.246 279.383 497.707 261.104 502.403 243.483ZM334.5 258.267C309.859 258.267 289.9 276.047 289.9 298C289.9 319.953 309.859 337.733 334.5 337.733C359.142 337.733 379.1 319.953 379.1 298C379.1 276.047 359.142 258.267 334.5 258.267ZM209.847 343.204C212.717 348.003 215.541 352.812 218.645 357.6C221.833 362.519 225.34 366.949 228.662 371.685C219.815 369.782 211.309 367.728 203.313 365.438C205.126 358.141 207.338 350.719 209.847 343.204ZM459.154 343.243C461.663 350.761 463.918 358.177 465.73 365.477C457.588 367.769 449.104 369.798 440.382 371.646C443.696 366.922 447.218 362.507 450.399 357.6C453.494 352.823 456.29 348.031 459.154 343.243ZM197.346 400.205C216.999 405.448 238.216 409.632 260.718 412.505C274.586 428.173 288.943 442.27 303.663 454.644C278.639 469.936 255.586 478.197 238.157 478.197C231.11 478.197 225.23 476.938 220.213 474.355C203.242 465.634 194.525 439.292 196.911 403.93C196.992 402.718 197.239 401.431 197.346 400.205ZM471.654 400.205C471.761 401.431 472.008 402.718 472.089 403.93C474.475 439.292 465.758 465.614 448.788 474.355C443.77 476.938 437.912 478.197 430.843 478.197C413.414 478.197 390.361 469.938 365.337 454.644C380.058 442.269 394.455 428.175 408.325 412.505C430.812 409.632 452.013 405.445 471.654 400.205ZM316.381 416.773C322.397 416.953 328.382 417.2 334.5 417.2C340.619 417.2 346.603 416.953 352.619 416.773C346.548 422.444 340.545 427.625 334.5 432.527C328.455 427.625 322.452 422.444 316.381 416.773Z" fill="#00756E"/>
</svg>
