<svg width="669" height="596" viewBox="0 0 669 596" fill="none" xmlns="http://www.w3.org/2000/svg">
<path d="M585.375 74.5H83.625V521.5H585.375V74.5Z" fill="#1976D2"/>
<path d="M383.142 273.167H198.289V313.695H264.589V496.667H317.12V313.695H383.142V273.167Z" fill="white"/>
<path d="M546.266 323.876C546.266 323.876 521.36 309.076 493.206 309.076C465.053 309.076 454.92 320.996 454.92 333.735C454.92 366.615 557.793 363.324 557.793 429.493C557.793 531.421 400.94 486.212 400.94 486.212V437.315C400.94 437.315 430.934 457.455 466.906 457.455C502.879 457.455 501.513 436.496 501.513 433.615C501.513 403.206 399.56 403.206 399.56 335.796C399.56 244.149 548.106 280.306 548.106 280.306L546.266 323.876Z" fill="white"/>
</svg>
